<svg fill="none" height="24" viewBox="0 0 24 24" width="24" xmlns="http://www.w3.org/2000/svg"><path d="m14 8v-.75c-.4142 0-.75.33579-.75.75zm-.75 8c0 .4142.3358.75.75.75s.75-.3358.75-.75zm-4.75-8 .71586-.22371c-.09785-.3131-.38782-.52629-.71586-.52629s-.61801.21319-.71586.52629zm-1.625 5.2-.71586-.2237zm-1.59086 2.5763c-.12355.3954.0968.816.49215.9396.39536.1235.81602-.0968.93957-.4922zm4.99996.4474c.1236.3954.5442.6157.9396.4922.3954-.1236.6157-.5442.4922-.9396zm3.7159-4.2237h-.75v.75h.75zm3.364 4.3975c.2195.3513.6822.458 1.0335.2385s.458-.6822.2385-1.0335zm-9.57986-8.62121-1.625 5.20001 1.43172.4474 1.625-5.19999zm-1.625 5.20001-.875 2.8 1.43172.4474.875-2.8zm1.625-4.75259 1.625 5.19999 1.43176-.4474-1.62504-5.20001zm1.625 5.19999.87496 2.8 1.4318-.4474-.875-2.8zm-2.53414.5263h3.25v-1.5h-3.25zm7.125-5.2h2v-1.5h-2zm.75 3.25v-4h-1.5v4zm2.5-2c0 .6904-.5596 1.25-1.25 1.25v1.5c1.5188 0 2.75-1.2312 2.75-2.75zm-1.25-1.25c.6904 0 1.25.55964 1.25 1.25h1.5c0-1.51878-1.2312-2.75-2.75-2.75zm-2.75-.75v8h1.5v-8zm2.75 3.25h-.5v1.5h.5zm-.5 0h-1.5v1.5h1.5zm-.636 1.1475 2.5 4 1.272-.795-2.5-4z" fill="#1c274c"/><path d="m22 12c0 4.714 0 7.0711-1.4645 8.5355-1.4644 1.4645-3.8215 1.4645-8.5355 1.4645-4.71405 0-7.07107 0-8.53553-1.4645-1.46447-1.4644-1.46447-3.8215-1.46447-8.5355 0-4.71405 0-7.07107 1.46447-8.53553 1.46446-1.46447 3.82148-1.46447 8.53553-1.46447 4.714 0 7.0711 0 8.5355 1.46447.9738.97374 1.3001 2.34208 1.4094 4.53553" stroke="#1c274c" stroke-linecap="round" stroke-width="1.5"/></svg>